# xmcd
#
# Track frame offsets:
# 150
# 19650
# 36640
# 53766
# 68751
# 86608
# 99433
# 122347
# 136728
# 153666
# 172254
# 194229
# 211724
# 234053
# 250907
# 267707
# 283488
# 295723
# 308397
# 323397
#
# Disc length: 4479 seconds
#
#
# Revision: 1
# Processed by: cddbd v1.5.1PL0 Copyright (c) Steve Scherf et al.
# Submitted via: FreeRIP 2.931 
#
DISCID=1d117d14
DTITLE=Zé Ramalho - Zé Ramalho As 20 Mais
DYEAR=1900
DGENRE=Sertanejo
TTITLE0=Beira Mar
TTITLE1=Cidadão
TTITLE2=O Gosto da Criação
TTITLE3=Mistério da Meia Noite
TTITLE4=Eternas Ondas
TTITLE5=Entre a Serpente e a Estrela
TTITLE6=Garoto de Aluguel
TTITLE7=No Pé de Serra/ O Xote das Meninas/ Qui Nem Jiló
TTITLE8=Batendo Na Porta Do Céu
TTITLE9=Coisas Boas e Mas
TTITLE10=Admirável Gado Novo
TTITLE11=A Terceira Lâmina
TTITLE12=Avôhai
TTITLE13=Banquete de signos
TTITLE14=Baião/ Imbalança/ Asa Branca
TTITLE15=Vila Do Sossego
TTITLE16=Ave de Prata
TTITLE17=Pepita de Fogo
TTITLE18=Pelo Vinho e Pelo Pão
TTITLE19=Gemedeira/ Frevo Mulher
EXTD=
EXTT0=
EXTT1=
EXTT2=
EXTT3=
EXTT4=
EXTT5=
EXTT6=
EXTT7=
EXTT8=
EXTT9=
EXTT10=
EXTT11=
EXTT12=
EXTT13=
EXTT14=
EXTT15=
EXTT16=
EXTT17=
EXTT18=
EXTT19=
PLAYORDER=
